<svg width="982" height="127" viewBox="0 0 982 127" fill="none" xmlns="http://www.w3.org/2000/svg">
<path d="M138.65 79.5798L158.378 127H124.17L104.442 79.5798L91.2297 47.9059L84.7139 31.9785H73.8543L67.3386 47.9059L54.1261 79.5798L34.3978 127H0.190067L19.9183 79.5798L32.9499 47.9059L39.4656 31.9785L52.6781 0.304702H75.1213H83.447H105.89L118.922 31.9785L125.618 47.9059L138.65 79.5798ZM290.041 1.39067C308.14 5.73451 321.715 22.0239 321.715 41.3902V86.0955C321.715 89.1724 321.353 92.2493 320.629 95.1452C317.19 110.53 305.244 122.475 290.041 126.095C288.231 126.457 286.602 126.638 284.792 126.819C283.525 127 282.077 127 280.629 127H163.346V49.1729H195.019V95.3262H277.733C284.43 95.3262 290.041 89.8964 290.041 83.1996V44.2861C290.041 37.5893 284.43 31.9785 277.733 31.9785H163.346V0.304702H280.629C283.887 0.304702 286.964 0.847685 290.041 1.39067ZM323.46 0.304702H357.667L393.323 86.0955L376.31 127H375.948L323.46 0.304702ZM447.621 0.304702H481.648L442.191 95.3262L429.16 127H394.952L447.621 0.304702ZM596.436 79.5798L616.164 127H581.956L562.228 79.5798L549.015 47.9059L542.5 31.9785H531.64L525.124 47.9059L511.912 79.5798L492.184 127H457.976L477.704 79.5798L490.736 47.9059L497.251 31.9785L510.464 0.304702H532.907H541.233H563.676L576.707 31.9785L583.404 47.9059L596.436 79.5798ZM652.805 127H621.131V0.304702H652.805V127ZM816.987 0.304702V31.9785H753.64V127H721.966V31.9785H658.618V0.304702H816.987ZM949.5 0.304702H981.174V127H949.5V79.5798H854.478V127H822.804V0.304702H854.478V47.9059H949.5V0.304702Z" fill="black"/>
</svg>
