<svg width="1920" height="1080" viewBox="0 0 1920 1080" fill="none" xmlns="http://www.w3.org/2000/svg">
<path d="M-134.746 -62.0999C-70.2457 -34.5999 107.754 -117.1 38.2543 -25.0999C164.754 80.9001 429.254 20.9001 139.254 112.9C-134.746 313.4 -275.246 311.4 -134.746 274.4C5.75428 237.4 -125.246 182.4 19.7543 216.9C164.754 251.4 95.2543 313.9 162.254 274.4C229.254 234.9 217.254 80.9001 325.754 156.9C434.254 232.9 501.254 85.4001 535.754 172.9C570.254 260.4 66.2543 342.9 395.254 363.9C724.254 384.9 850.754 197.9 758.754 363.9C666.754 529.9 433.754 479.4 625.254 543.9C816.754 608.4 775.254 594.9 897.254 608.4C1019.25 621.9 936.754 415.4 1037.75 585.4C1138.75 755.4 1106.75 651.9 1194.25 720.9C1281.75 789.9 970.254 898.4 1161.75 879.9C1578.75 773.9 1726.25 510.9 1654.75 732.4C1583.25 953.9 1396.75 946.4 1479.75 960.4C1546.15 971.6 1645.75 943.733 1687.25 928.4C1639.59 898.567 1576.05 859.6 1703.25 942.4C1862.25 1045.9 1917.75 1059.9 1972.75 1080.4" stroke="black" stroke-width="6" stroke-linecap="round"/>
</svg>
